<?xml version="1.0" encoding="UTF-8" standalone="no"?>
<!-- Created with Inkscape (http://www.inkscape.org/) -->

<svg
   xmlns:dc="http://purl.org/dc/elements/1.1/"
   xmlns:cc="http://creativecommons.org/ns#"
   xmlns:rdf="http://www.w3.org/1999/02/22-rdf-syntax-ns#"
   xmlns:svg="http://www.w3.org/2000/svg"
   xmlns="http://www.w3.org/2000/svg"
   xmlns:sodipodi="http://sodipodi.sourceforge.net/DTD/sodipodi-0.dtd"
   xmlns:inkscape="http://www.inkscape.org/namespaces/inkscape"
   id="svg2"
   version="1.1"
   inkscape:version="0.48.3.1 r9886"
   width="200"
   height="200"
   sodipodi:docname="A4_Logo.svg"
   inkscape:export-filename="C:\Documents and Settings\Admin\Рабочий стол\A4_Logo.png"
   inkscape:export-xdpi="81.081078"
   inkscape:export-ydpi="81.081078">
  <metadata
     id="metadata8">
    <rdf:RDF>
      <cc:Work
         rdf:about="">
        <dc:format>image/svg+xml</dc:format>
        <dc:type
           rdf:resource="http://purl.org/dc/dcmitype/StillImage" />
        <dc:title></dc:title>
      </cc:Work>
    </rdf:RDF>
  </metadata>
  <defs
     id="defs6" />
  <sodipodi:namedview
     pagecolor="#ffffff"
     bordercolor="#666666"
     borderopacity="1"
     objecttolerance="10"
     gridtolerance="10"
     guidetolerance="10"
     inkscape:pageopacity="0"
     inkscape:pageshadow="2"
     inkscape:window-width="1920"
     inkscape:window-height="1024"
     id="namedview4"
     showgrid="false"
     inkscape:snap-page="true"
     borderlayer="true"
     showguides="true"
     inkscape:guide-bbox="true"
     inkscape:object-nodes="true"
     inkscape:snap-to-guides="true"
     inkscape:zoom="2.4054371"
     inkscape:cx="131.7614"
     inkscape:cy="97.25477"
     inkscape:window-x="-4"
     inkscape:window-y="-4"
     inkscape:window-maximized="1"
     inkscape:current-layer="svg2" />
  <g
     id="g3857"
     transform="scale(0.09009009,0.09009009)">
    <path
       sodipodi:nodetypes="cccccccccc"
       inkscape:connector-curvature="0"
       id="rect2989"
       d="m 0,0 0,2220 2220,0 0,-2220 z m 47.03125,47.03125 2125.93755,0 0,2125.93755 -2125.93755,0 z"
       style="fill:#93d728;fill-opacity:1;stroke:none" />
    <path
       sodipodi:nodetypes="ccccccccc"
       inkscape:connector-curvature="0"
       id="rect3774"
       d="m 1753.9375,173.375 0,19.125 42.8125,0 0,162.15625 22.362,-0.0136 0,-162.15625 42.0755,0.0137 0,-19.125 z"
       style="fill:#93d728;fill-opacity:1;stroke:none" />
    <path
       sodipodi:nodetypes="cccccccccccccc"
       inkscape:connector-curvature="0"
       id="rect3780"
       d="m 1886.6562,173.375 0,181.28125 19.9688,0 0,-160.25 51.4375,160.25 16.2187,0 52.6876,-161.1875 0,161.1875 21,0 0,-181.28125 -33.375,0 -47.375,146.34375 L 1920,173.375 z"
       style="fill:#93d728;fill-opacity:1;stroke:none" />
    <path
       sodipodi:nodetypes="cccccccsssc"
       inkscape:connector-curvature="0"
       id="path3795"
       d="m 322.34101,1467.9149 371.38103,0 438.61906,-599.21948 267.8309,367.07708 -353.4686,-0.2027 -170.02863,232.3451 1046.37253,0 -582.2357,-821.17448 c -56.8112,-80.12556 -135.9676,-121.16359 -208.4705,-121.99504 -71.0949,-0.8153 -146.25275,37.43998 -208.43383,122.2904 z"
       style="fill:#93d728;fill-opacity:1;stroke:none" />
    <path
       sodipodi:nodetypes="csccccccccccc"
       inkscape:connector-curvature="0"
       style="fill:#93d728;fill-opacity:1;stroke:none"
       d="m 730.62174,861.84272 c -51.03884,-0.47458 -82.46057,31.62539 -129.38924,93.08845 l -201.44437,263.05343 0,104.9522 287.74573,0.034 0,92.2994 130.21177,0 0,-92.4418 41.80651,0 79.42007,-109.1091 -120.15055,0 -3.2771,-256.7126 c -3.873,-48.73488 -39.48731,-93.71088 -84.92282,-95.16398 z"
       id="path3809" />
    <path
       id="path3797"
       d="m 736.75,880.65625 c -47.10095,-0.43796 -76.09835,29.18535 -119.40625,85.90625 l -201.09375,263.375 0,77.5937 288.875,0.031 0,90.875 95.75,0 0,-90.8437 48.28125,0 59.34375,-77.6563 -107.625,0 0,-210.25 c 0,-27.63544 0.91325,-54.6823 -2.03125,-75.625 -4.84262,-34.44312 -31.00113,-63.11715 -62.09375,-63.40625 z m -46.75,116.5 c 8.22992,-0.3195 15.125,6.46815 15.125,22.53125 l 0,210.25 -195.9375,0 161.09375,-218 c 3.61891,-4.8975 7.01194,-9.758 11.25,-12.15625 2.83586,-1.60478 5.72544,-2.5185 8.46875,-2.625 z"
       style="fill:#ffffff;fill-opacity:1;stroke:none"
       inkscape:connector-curvature="0" />
    <path
       sodipodi:nodetypes="sscccccccsssccs"
       inkscape:connector-curvature="0"
       id="rect3815"
       d="m 290.71875,1763.125 c -64.15377,0 -119.18771,63.6862 -119.40625,128.8125 -0.26126,77.8558 53.45356,145.8125 115.75,145.8125 l 215.90625,0 0,-159.9062 -184.03125,0 0,46.125 137.875,0 0,68.0312 -157.6875,0 c -52.60573,0 -82.92534,-49.0641 -81.875,-96.25 0.98464,-44.2344 34.63244,-86.7812 82,-86.7812 l 180.84375,0 0,-45.8438 z"
       style="fill:#93d728;fill-opacity:1;stroke:none" />
    <path
       sodipodi:nodetypes="cccccccccccccc"
       inkscape:connector-curvature="0"
       id="rect3830"
       d="m 1431.5938,1763.125 0,274.625 253.125,0 0,-45.875 -207.2813,0 0,-182.9062 206.6875,0 0,-45.8438 z m 69.0624,114.7188 0,45.8437 160.5626,0 0,-45.8437 z"
       style="fill:#93d728;fill-opacity:1;stroke:none" />
    <path
       sodipodi:nodetypes="ssssccsssssccsss"
       inkscape:connector-curvature="0"
       id="rect3842"
       d="m 1976.1875,1877.7812 -150.5313,0 c -27.1026,0 -40.2966,-17.7305 -39.7715,-35.2168 0.4686,-15.6059 15.6136,-33.5956 36.6465,-33.5956 l 204.5626,0 0,-45.8438 -219.5289,-0.01 c -105.9104,0 -98.4223,159.8816 -5.4087,159.8816 l 150.5313,0 c 25.3446,0 40.0782,18.0125 40.0122,33.1207 -0.077,17.6654 -14.0403,35.7855 -36.2622,35.7855 l -226.4063,0 0,45.8438 246.75,0 c 47.4474,0 73.3071,-41.3632 72.5116,-82.0234 -0.769,-39.3011 -29.8292,-77.9454 -73.1053,-77.9454 z"
       style="fill:#93d728;fill-opacity:1;stroke:none" />
    <path
       sodipodi:nodetypes="ccsscccssscssscc"
       inkscape:connector-curvature="0"
       id="path3851"
       d="m 982.66408,2037.7436 53.22182,-205.1497 86.9119,171.0502 c 22.1329,43.5595 45.9879,46.8315 69.7194,0.1722 l 86.8048,-170.6701 53.7446,204.5974 53.3228,0 -63.7689,-232.0219 c -7.0919,-25.8039 -17.6394,-42.6033 -38.8956,-42.6033 -21.3341,0 -33.1528,22.0631 -45.8367,47.4197 l -80.2664,160.4614 -83.4077,-166.8154 c -15.1917,-30.3835 -26.9243,-41.0657 -42.5884,-41.0657 -23.8963,0 -34.79842,25.8738 -38.0346,37.692 l -64.87947,236.9332 z"
       style="fill:#93d728;fill-opacity:1;stroke:none" />
    <path
       style="fill:#93d728;fill-opacity:1;stroke:none"
       d="m 521.46922,2037.7436 68.58507,0 125.44889,-205.9302 97.67517,160.7858 -155.34958,-0.059 -21.8761,45.2034 275.52101,0 L 759.767,1800.9917 c -14.63584,-22.8405 -26.59717,-37.8733 -44.26382,-37.8733 -16.29305,0 -27.07803,11.7307 -42.61484,36.1955 z"
       id="path3855"
       inkscape:connector-curvature="0"
       sodipodi:nodetypes="cccccccsssc" />
  </g>
</svg>
